<svg width="135" height="134" viewBox="0 0 135 134" fill="none" xmlns="http://www.w3.org/2000/svg">
<rect x="0.920898" y="0.0760498" width="133.641" height="133.641" rx="66.8205" fill="#004789"/>
<path d="M42.5137 44.4358V45.6441V81.0256H61.932V87.1334H55.2437H54.0448V89.5642H55.2437H80.7555H81.9591V87.1334H80.7555H74.0672V81.0256H93.4855V44.4358H42.5137ZM44.9162 46.8477H91.083V78.5948H44.9162V46.8477ZM64.3534 81.0256H71.6506V87.1334H64.3534V81.0256Z" fill="white"/>
<path d="M79.6462 49.0992V51.5348H80.8451H84.083L76.7575 58.9547L72.651 54.7916L63.3856 64.7745L62.5596 65.6572L64.3154 67.3139L65.1414 66.4313L72.7077 58.2892L76.7575 62.3956L85.7775 53.2529V56.5428V57.7511H88.18V56.5428V49.0992H80.8451H79.6462Z" fill="white"/>
<path d="M52.2319 53.588V54.7963V56H48.1963V63.9296H56.2487V67.0449H49.3999H48.1963V69.4568H49.3999H52.2319V70.6652V71.8735H54.6344V70.6652V69.4568H58.6701V61.513H50.5988V58.4166H57.4476H58.6701V56H57.4476H54.6344V54.7963V53.588H52.2319Z" fill="white"/>
<path d="M66.2344 71.8911V74.3052H67.4356H86.2252H87.4264V71.8911H86.2252H67.4356H66.2344Z" fill="white"/>
<path d="M70.4482 67.0088V69.4229H71.6495H86.2257H87.427V67.0088H86.2257H71.6495H70.4482Z" fill="white"/>
</svg>
