<svg width="24" height="24" viewBox="0 0 24 24" fill="none" xmlns="http://www.w3.org/2000/svg">
<path d="M4.79157 1.20212V2.3972H1.19557C0.532721 2.39984 -0.00251024 2.93907 2.05351e-05 3.60165V22.7932C-0.00382098 23.4567 0.5318 23.9973 1.19557 24H22.7951C23.4625 24.0025 24.0038 23.4604 24 22.7932V3.60165C24.0025 2.9354 23.4616 2.39466 22.7951 2.3972H19.199V1.20212C19.1782 -0.409838 16.7791 -0.391551 16.7962 1.20212V2.3972H7.19204V1.20212C7.19451 -0.401851 4.79452 -0.399525 4.79157 1.20212ZM2.40048 4.79673H4.79157V6.00352C4.79157 7.60898 7.19204 7.58619 7.19204 6.00352V4.79673H16.7962V6.00352C16.7962 7.62335 19.199 7.58517 19.199 6.00352V4.79673H21.5995V8.40305H2.40048V4.79673ZM2.40048 10.7932H21.5995V21.5981H2.40048V10.7932ZM4.79157 11.9977C3.29501 11.9977 3.19926 14.3995 4.79157 14.3995H7.19204C8.82658 14.4021 8.86419 12.0026 7.19204 11.9977H4.79157ZM10.7998 11.9977C9.20158 12.0023 9.16402 14.4021 10.7998 14.3995H13.2002C14.8078 14.4021 14.9016 12.0027 13.2002 11.9977H10.7998ZM16.7962 11.9977C15.2203 12.0023 15.2015 14.4021 16.7962 14.3995H19.199C20.7901 14.3995 20.8828 12.0026 19.199 11.9977H16.7962ZM4.79157 16.7991C3.22392 16.7991 3.22393 19.1986 4.79157 19.1986H7.19204C8.76663 19.2029 8.81971 16.8026 7.19204 16.7991H4.79157ZM10.7998 16.7991C9.14279 16.7991 9.17106 19.1986 10.7998 19.1986H13.2002C14.74 19.2029 14.7667 16.7991 13.2002 16.7991H10.7998ZM16.7962 16.7991C15.1976 16.8025 15.1974 19.1986 16.7962 19.1986H19.199C20.7887 19.203 20.8493 16.8026 19.199 16.7991H16.7962Z" fill="#004789"/>
</svg>
