<svg width="134" height="134" viewBox="0 0 134 134" fill="none" xmlns="http://www.w3.org/2000/svg">
<rect x="0.202148" y="0.0761719" width="133.641" height="133.641" rx="66.8205" fill="#004789"/>
<g clip-path="url(#clip0_2002_370)">
<path d="M57.25 89.75H47.5C46.638 89.75 45.8114 89.4076 45.2019 88.7981C44.5924 88.1886 44.25 87.362 44.25 86.5V67C44.25 66.138 44.5924 65.3114 45.2019 64.7019C45.8114 64.0924 46.638 63.75 47.5 63.75H57.25C58.112 63.75 58.9386 64.0924 59.5481 64.7019C60.1576 65.3114 60.5 66.138 60.5 67V86.5C60.5 87.362 60.1576 88.1886 59.5481 88.7981C58.9386 89.4076 58.112 89.75 57.25 89.75ZM47.5 67V86.5H57.25V67H47.5Z" fill="white"/>
<path d="M86.5 47.5H50.75C49.888 47.5 49.0614 47.8424 48.4519 48.4519C47.8424 49.0614 47.5 49.888 47.5 50.75V60.5H50.75V50.75H86.5V73.5H63.75V76.75H67V83.25H63.75V86.5H78.375V83.25H70.25V76.75H86.5C87.362 76.75 88.1886 76.4076 88.7981 75.7981C89.4076 75.1886 89.75 74.362 89.75 73.5V50.75C89.75 49.888 89.4076 49.0614 88.7981 48.4519C88.1886 47.8424 87.362 47.5 86.5 47.5Z" fill="white"/>
</g>
<defs>
<clipPath id="clip0_2002_370">
<rect width="52" height="52" fill="white" transform="translate(41 41)"/>
</clipPath>
</defs>
</svg>
