<svg width="20" height="14" viewBox="0 0 20 14" fill="none" xmlns="http://www.w3.org/2000/svg">
<path d="M18.2219 13.9816H1.77813C0.798013 13.9816 0 13.1092 0 12.0365V1.93898C0 0.866829 0.798013 -0.00610352 1.77813 -0.00610352H18.2219C19.2023 -0.00610352 20 0.866548 20 1.93898V12.0365C20 13.1089 19.2023 13.9816 18.2219 13.9816ZM1.77813 1.71984C1.57498 1.71984 1.45012 1.86154 1.45012 1.9387V12.0362C1.45012 12.1134 1.57498 12.2551 1.77813 12.2551H18.2219C18.425 12.2551 18.5499 12.1134 18.5499 12.0362V1.93898C18.5499 1.86182 18.425 1.72012 18.2219 1.72012L1.77813 1.71984Z" fill="#333333"/>
<path d="M18.9068 1.36646L9.99254 6.56617L1.25172 1.36898L0.276367 2.66617L9.97178 8.43101L19.8706 2.67122L18.9068 1.36646Z" fill="#333333"/>
</svg>
