<svg width="40" height="40" viewBox="0 0 40 40" fill="none" xmlns="http://www.w3.org/2000/svg">
<circle cx="20.143" cy="19.7143" r="19.7143" fill="white"/>
<path d="M23.3471 16.5557C24.7829 16.5557 26.1598 17.126 27.1751 18.1413C28.1903 19.1565 28.7607 20.5334 28.7607 21.9692V28.285H25.1516V21.9692C25.1516 21.4906 24.9615 21.0316 24.6231 20.6932C24.2847 20.3548 23.8257 20.1647 23.3471 20.1647C22.8685 20.1647 22.4096 20.3548 22.0711 20.6932C21.7327 21.0316 21.5426 21.4906 21.5426 21.9692V28.285H17.9336V21.9692C17.9336 20.5334 18.5039 19.1565 19.5192 18.1413C20.5344 17.126 21.9114 16.5557 23.3471 16.5557Z" stroke="#75378B" stroke-width="1.2" stroke-linecap="round" stroke-linejoin="round"/>
<path d="M14.3239 17.458H10.7148V28.2851H14.3239V17.458Z" stroke="#75378B" stroke-width="1.2" stroke-linecap="round" stroke-linejoin="round"/>
<path d="M12.5194 14.7516C13.516 14.7516 14.3239 13.9437 14.3239 12.9471C14.3239 11.9505 13.516 11.1426 12.5194 11.1426C11.5228 11.1426 10.7148 11.9505 10.7148 12.9471C10.7148 13.9437 11.5228 14.7516 12.5194 14.7516Z" stroke="#75378B" stroke-width="1.2" stroke-linecap="round" stroke-linejoin="round"/>
</svg>
