<svg width="134" height="134" viewBox="0 0 134 134" fill="none" xmlns="http://www.w3.org/2000/svg">
<rect x="0.202148" y="0.128723" width="133.641" height="133.641" rx="66.8205" fill="#004789"/>
<path d="M89.2524 58.4048C89.2581 58.3292 89.2656 58.254 89.269 58.1783C89.3032 57.4249 89.1986 56.6834 89.0974 55.9666C89.0621 55.7163 89.027 55.4675 88.9986 55.2213L88.5793 51.5735C88.5533 51.3471 88.5315 51.1186 88.5095 50.8891C88.4534 50.3012 88.3955 49.6931 88.2677 49.0904C88.0013 47.8351 87.3017 46.8781 86.6523 46.1075L82.4069 41.0686C81.8465 40.4038 80.9849 39.4042 80.3607 38.6827C79.5281 37.7207 78.3211 37.168 77.049 37.1663L70.1252 37.1604L70.0454 37.1642C68.4533 37.3191 67.6448 38.6642 67.6692 39.9128C67.6763 40.2726 67.743 40.6087 67.8601 40.9123H48.5858C48.1304 40.9123 47.7608 41.2819 47.7608 41.7373V73.4322C47.6154 73.6528 47.5009 73.8957 47.4226 74.1557L45.1919 81.567C44.7969 82.9707 44.7045 84.3953 44.8796 85.7674C44.6136 87.0239 44.3867 89.3725 45.5752 91.7686C47.6839 96.0209 52.4085 96.7086 52.9403 96.7731C53.3084 96.8176 53.6808 96.8397 54.0552 96.8397C55.1949 96.8397 56.3512 96.6345 57.4521 96.2325C57.6661 96.1545 57.7763 95.9176 57.6981 95.7036C57.6199 95.4894 57.3831 95.3798 57.1691 95.4575C55.8287 95.9471 54.4007 96.119 53.0397 95.954C52.5531 95.8951 48.2309 95.2665 46.3143 91.402C45.764 90.2922 45.5492 89.1908 45.5025 88.2253C46.3654 90.4524 47.9862 92.381 50.2056 93.616C51.7906 94.4981 53.5398 94.9475 55.3084 94.9475C56.2502 94.9475 57.1975 94.82 58.1286 94.5626C59.0641 94.3053 59.9591 93.9189 60.7886 93.414C60.8339 93.3874 60.8785 93.3597 60.9229 93.3317L60.9668 93.3041C61.5683 92.9217 62.1364 92.472 62.6555 91.9675C62.989 91.6858 67.1666 88.118 67.341 87.969L71.1275 84.7957H79.0942C79.5495 84.7957 79.9192 84.4261 79.9192 83.9707V66.4192C80.6148 66.6457 81.3708 66.7634 82.1524 66.7634C82.3847 66.7634 82.6192 66.7532 82.855 66.7325C84.8734 66.556 86.6464 65.5815 87.8469 63.9887C89.0397 62.4064 89.5428 60.3894 89.2524 58.4048ZM70.1787 40.8653C69.3776 40.8189 69.3217 40.0368 69.3186 39.8804C69.3166 39.7808 69.3245 38.9157 70.17 38.8102L77.0465 38.8162C77.8403 38.8172 78.5934 39.162 79.1126 39.7623C79.7337 40.48 80.5904 41.4737 81.1448 42.1315L85.3904 47.1705C85.9339 47.8156 86.463 48.536 86.6531 49.4324C86.7614 49.9433 86.8127 50.4787 86.8668 51.0456C86.8897 51.2857 86.9125 51.5248 86.9397 51.7616L87.359 55.4094C87.389 55.6694 87.4258 55.9323 87.4633 56.1968C87.558 56.8687 87.6474 57.5031 87.6202 58.1034C87.5461 59.7397 86.7414 61.2727 85.4122 62.3097C84.0826 63.3474 82.3988 63.7556 80.7923 63.4292C80.4957 63.369 80.2031 63.2844 79.919 63.1776V58.191L81.57 59.4745C81.7205 59.5915 81.8987 59.6483 82.0755 59.6483C82.3216 59.6483 82.5649 59.5387 82.7274 59.3296C83.0071 58.9699 82.9423 58.4517 82.5824 58.172L80.5872 56.6208C79.6606 55.9004 79.113 54.7697 79.1225 53.596L79.1428 51.0603C79.1549 49.5689 79.0407 47.9978 78.1339 46.6098L75.5999 42.5148L75.5585 42.4543C75.3094 42.1216 75.3642 41.6529 75.6836 41.3869C75.9979 41.1254 76.4591 41.1506 76.7426 41.4426L83.3929 49.546C83.6821 49.8981 84.2019 49.9494 84.554 49.6603C84.9063 49.3712 84.9574 48.8513 84.6683 48.4992L78.0005 40.3739L77.969 40.3376C77.0906 39.3864 75.6232 39.2904 74.6284 40.1189C74.3585 40.3436 74.1516 40.6157 74.0054 40.9125H70.3988C70.3289 40.8882 70.2563 40.8699 70.1787 40.8653ZM66.2755 86.7094C66.2352 86.7437 62.6458 89.8093 61.7668 90.5575L61.7327 90.5618L61.5339 90.7569C61.0877 91.1941 60.5991 91.5827 60.0876 91.9079L60.0439 91.9353C60.0132 91.9546 59.9829 91.9739 59.9515 91.992L59.9365 92.001C59.2362 92.4278 58.4809 92.7543 57.6899 92.9718C55.4289 93.5972 53.056 93.3137 51.0078 92.174C47.4001 90.1665 45.6618 85.9884 46.7763 82.0284L47.0218 81.2121L49.0026 74.6312C49.0869 74.3511 49.2753 74.1204 49.5332 73.9818C49.7911 73.8434 50.0873 73.8135 50.3676 73.8978C50.8498 74.0428 51.1981 74.4971 51.1983 74.9693C51.1578 75.2074 51.1969 75.4508 51.3126 75.6676C51.4512 75.9273 51.6829 76.1172 51.9648 76.202C52.2468 76.2868 52.5447 76.2563 52.8032 76.1164C53.0621 75.9765 53.2507 75.7438 53.3329 75.4656L53.6812 74.3078C53.8553 73.7293 54.4684 73.4005 55.0461 73.5744C55.6247 73.7487 55.9536 74.361 55.7795 74.9393L55.6488 75.3734L55.6311 75.4432C55.511 76.0204 55.8645 76.5863 56.4359 76.7317C57.0079 76.8772 57.5885 76.5485 57.7587 75.9836L60.9154 65.4935C61.0895 64.9151 61.7017 64.586 62.2803 64.7601C62.5605 64.8444 62.7912 65.0329 62.9298 65.2906C63.0682 65.5483 63.0982 65.8447 63.0137 66.125L59.8749 76.5563C59.7893 76.8376 59.8185 77.1353 59.9574 77.3943C60.0962 77.6534 60.3275 77.8428 60.6085 77.9273C60.8904 78.0121 61.1879 77.9821 61.4464 77.8423C61.7051 77.7027 61.8939 77.4706 61.9767 77.1915L64.7375 68.0174C64.9116 67.4389 65.5244 67.1102 66.1022 67.2838C66.22 67.3193 66.3294 67.3732 66.4276 67.4438C66.8066 67.7169 66.9704 68.201 66.8358 68.6487L62.3511 83.5516L62.3328 83.6247C62.2439 84.0612 62.4049 84.5045 62.7522 84.7814C63.167 85.1122 63.7556 85.1243 64.1836 84.8111L68.3965 81.7276L68.4713 81.6659C68.9669 81.2045 69.7461 81.2331 70.2081 81.7297C70.6655 82.2207 70.6419 82.9906 70.1584 83.4549L66.2755 86.7094ZM67.3925 66.105C67.1453 65.927 66.8714 65.792 66.5779 65.7037C65.9379 65.5114 65.2818 65.5645 64.7106 65.8084C64.7096 64.6289 63.942 63.537 62.7558 63.1799C61.3062 62.7433 59.7718 63.5683 59.3356 65.018L58.2358 68.6723C58.0697 68.4604 57.9195 68.2337 57.7893 67.9916C57.1935 66.8828 57.0652 65.6079 57.4282 64.4019C57.7908 63.1964 58.6013 62.2043 59.7104 61.6083C60.4062 61.2342 61.1674 61.0443 61.9358 61.0443C62.392 61.0443 62.8509 61.1113 63.3002 61.2466C64.539 61.6193 65.5457 62.4595 66.1354 63.6122L66.2312 63.7997L66.4393 63.832C66.6568 63.8658 66.8742 63.9152 67.0853 63.9787C69.5741 64.7276 70.9895 67.3618 70.2407 69.8507C69.8779 71.0565 69.0671 72.0488 67.9578 72.6446C67.7334 72.7653 67.5019 72.8652 67.2658 72.9469L68.4162 69.1244C68.7534 68.0029 68.3421 66.7898 67.3925 66.105ZM72.1249 83.1457C72.3049 82.2641 72.0739 81.3118 71.4157 80.6054C70.3462 79.4558 68.5493 79.3786 67.3861 80.4226L64.3464 82.6473L66.9825 73.8874C67.4526 73.7774 67.9114 73.6059 68.3482 73.3713C69.6514 72.671 70.6041 71.5051 71.0304 70.0883C71.9105 67.1638 70.2473 64.0686 67.3227 63.1885C67.1419 63.134 66.9571 63.0887 66.7713 63.0525C66.0679 61.7926 64.9269 60.8745 63.5378 60.4564C62.1208 60.0301 60.6229 60.1812 59.3196 60.8816C58.0167 61.5821 57.0643 62.7479 56.6381 64.1643C56.2116 65.5813 56.3623 67.0794 57.0625 68.3822C57.3061 68.8354 57.6074 69.2447 57.9548 69.6055L56.9361 72.9906C56.5961 72.5303 56.1105 72.1719 55.5216 71.9945C54.2443 71.6099 52.9001 72.2049 52.3006 73.3444C51.9465 72.8677 51.4406 72.4976 50.843 72.3178C50.3698 72.1755 49.8788 72.1661 49.4106 72.2793V42.5623H73.8221C73.8947 42.8602 74.0244 43.1486 74.2144 43.4111L74.8104 44.374H51.6235C51.3958 44.374 51.211 44.5588 51.211 44.7865V70.7427C51.211 70.9704 51.3958 71.1552 51.6235 71.1552C51.8512 71.1552 52.036 70.9704 52.036 70.7427V45.199H75.3211L75.6458 45.7237V77.1975H67.876C67.6483 77.1975 67.4635 77.3823 67.4635 77.61C67.4635 77.8393 67.6483 78.0225 67.876 78.0225H76.0583C76.286 78.0225 76.4708 77.8393 76.4708 77.61V47.0569L76.7368 47.4868L76.7487 47.5054C77.4199 48.5282 77.5032 49.8119 77.4933 51.0468L77.473 53.5825C77.4648 54.6002 77.7502 55.5944 78.2693 56.4507V83.1454H72.1249V83.1457ZM82.7834 65.9107C81.7657 66.0001 80.7791 65.8714 79.9193 65.5439V64.9111C80.0997 64.9622 80.2812 65.0091 80.4645 65.0464C80.9364 65.1423 81.4129 65.1893 81.8881 65.1893C83.5064 65.1893 85.1054 64.6425 86.4277 63.6107C87.1023 63.0844 87.6699 62.4564 88.1183 61.7601C87.8979 62.3775 87.5874 62.9628 87.1884 63.4923C86.1302 64.8961 84.566 65.7549 82.7834 65.9107Z" fill="white"/>
</svg>
