<svg width="135" height="134" viewBox="0 0 135 134" fill="none" xmlns="http://www.w3.org/2000/svg">
<rect x="0.561523" y="0.0540771" width="133.641" height="133.641" rx="66.8205" fill="#004789"/>
<path d="M55.8523 67.6444C60.3302 67.6444 63.9604 64.0218 63.9604 59.5531C63.9604 55.0843 60.3302 51.4617 55.8523 51.4617C51.3743 51.4617 47.7441 55.0843 47.7441 59.5531C47.7441 64.0218 51.3743 67.6444 55.8523 67.6444Z" stroke="white" stroke-width="3" stroke-miterlimit="10" stroke-linecap="round"/>
<path d="M70.1859 90.5298H41.5176C41.019 90.5283 40.5412 90.33 40.1886 89.9781C39.836 89.6262 39.6372 89.1494 39.6357 88.6518V79.0303C39.6446 76.0133 40.8494 73.1223 42.9872 70.989C45.125 68.8556 48.0219 67.6532 51.0452 67.6444H60.6583C63.6816 67.6532 66.5785 68.8556 68.7163 70.989C70.854 73.1223 72.0589 76.0133 72.0677 79.0303V88.6518C72.0663 89.1494 71.8675 89.6262 71.5149 89.9781C71.1623 90.33 70.6845 90.5283 70.1859 90.5298Z" stroke="white" stroke-width="3" stroke-miterlimit="10" stroke-linecap="round"/>
<path d="M62.1064 48.9414C64.1327 46.6246 66.7072 44.8501 69.5958 43.7793C72.4844 42.7085 75.5955 42.3753 78.646 42.8101C81.6965 43.2448 84.5897 44.4338 87.0624 46.2688C89.5352 48.1037 91.509 50.5265 92.8043 53.3167C94.0997 56.1069 94.6755 59.176 94.4794 62.2449C94.2833 65.3137 93.3215 68.285 91.6815 70.8884C90.0415 73.4918 87.7753 75.6448 85.0891 77.1515C82.4028 78.6581 79.3817 79.4707 76.3006 79.5153" stroke="white" stroke-width="3" stroke-miterlimit="10" stroke-linecap="round"/>
<path d="M76.0342 52.6735V61.0733H87.2352" stroke="white" stroke-width="3" stroke-miterlimit="10" stroke-linecap="round"/>
</svg>
