<svg width="70" height="70" viewBox="0 0 70 70" fill="none" xmlns="http://www.w3.org/2000/svg">
<circle cx="35" cy="35" r="35" fill="#004789"/>
<path d="M48.0498 19.7749L29.1498 24.4999H18.0498V26.7499H13.5498V37.2499H14.2998H18.0498V39.4999H18.7998H20.7498L22.7748 49.9999H23.3748H28.2498L26.2248 39.4999H29.0748L47.8998 44.2249V43.2499V37.2499H50.3748V26.7499H47.8998V19.7749H48.0498ZM18.0498 35.7499H15.0498V28.2499H18.0498V35.7499ZM26.5248 48.4999H24.0498L22.3248 39.4999H24.7998L26.5248 48.4999ZM28.5498 37.9999H25.9998H20.4498H19.4748V37.2499V26.7499V25.9999H28.4748V37.9999H28.5498ZM46.5498 26.7499V37.2499V42.2749L30.0498 38.1499V25.8499L46.5498 21.7249V26.7499ZM48.9498 28.2499V35.7499H47.9748V28.2499H48.9498Z" fill="white"/>
<path d="M55.7748 31.25H52.1748V32.75H55.7748V31.25Z" fill="white"/>
<path d="M55.3041 25.2773L51.8818 26.8103L52.495 28.1792L55.9173 26.6462L55.3041 25.2773Z" fill="white"/>
<path d="M52.4277 35.8364L51.8145 37.2053L55.2367 38.7383L55.8499 37.3694L52.4277 35.8364Z" fill="white"/>
</svg>
