<svg width="70" height="70" viewBox="0 0 70 70" fill="none" xmlns="http://www.w3.org/2000/svg">
<circle cx="35" cy="35" r="34.5" fill="#004789" stroke="#004789"/>
<path d="M42.9326 39.0273C44.1924 37.0453 44.9314 34.6938 44.9314 32.1658C44.9314 25.1027 39.2121 19.375 32.1574 19.375C25.0943 19.375 19.375 25.1027 19.375 32.1658C19.375 39.2289 25.0943 44.9566 32.149 44.9566C34.7105 44.9566 37.0957 44.2008 39.0945 42.9074L39.674 42.5043L48.7947 51.625L51.625 48.7443L42.5127 39.6236L42.9326 39.0273ZM39.3129 25.0187C41.2193 26.9252 42.2691 29.4615 42.2691 32.1574C42.2691 34.8533 41.2193 37.3897 39.3129 39.2961C37.4064 41.2025 34.8701 42.2523 32.1742 42.2523C29.4783 42.2523 26.942 41.2025 25.0355 39.2961C23.1291 37.3897 22.0793 34.8533 22.0793 32.1574C22.0793 29.4615 23.1291 26.9252 25.0355 25.0187C26.942 23.1123 29.4783 22.0625 32.1742 22.0625C34.8701 22.0625 37.4064 23.1123 39.3129 25.0187Z" fill="white"/>
</svg>
