<svg width="18" height="12" viewBox="0 0 18 12" fill="none" xmlns="http://www.w3.org/2000/svg">
<path d="M15.6084 11.9815H1.52311C0.683559 11.9815 0 11.2343 0 10.3154V1.66612C0 0.747733 0.683559 0 1.52311 0H15.6084C16.4482 0 17.1315 0.747493 17.1315 1.66612V10.3154C17.1315 11.234 16.4482 11.9815 15.6084 11.9815ZM1.52311 1.4784C1.34909 1.4784 1.24214 1.59978 1.24214 1.66588V10.3152C1.24214 10.3813 1.34909 10.5026 1.52311 10.5026H15.6084C15.7824 10.5026 15.8894 10.3813 15.8894 10.3152V1.66612C15.8894 1.60002 15.7824 1.47864 15.6084 1.47864L1.52311 1.4784Z" fill="white"/>
<path d="M16.1947 1.17578L8.55898 5.62973L1.07179 1.17794L0.236328 2.28909L8.54119 7.22711L17.0203 2.29342L16.1947 1.17578Z" fill="white"/>
</svg>
