<svg width="135" height="134" viewBox="0 0 135 134" fill="none" xmlns="http://www.w3.org/2000/svg">
<rect x="0.920898" y="0.128662" width="133.641" height="133.641" rx="66.8205" fill="#004789"/>
<path d="M82 44.25C78.1411 44.25 75 47.3911 75 51.25C75 51.291 75 51.332 75 51.373L57.6709 61.0459C56.5669 60.3623 55.3057 60 54 60C50.1411 60 47 63.1411 47 67C47 70.8589 50.1411 74 54 74C55.3057 74 56.5669 73.6377 57.6709 72.9541L75 82.627C75 82.668 75 82.709 75 82.75C75 83.0474 75.0239 83.3379 75.0581 83.625C75.0684 83.7036 75.0854 83.7822 75.0957 83.8608C75.1333 84.083 75.1812 84.3018 75.2358 84.5171C75.2529 84.5889 75.27 84.6606 75.2905 84.7324C75.3691 85.0024 75.4648 85.2656 75.5742 85.5186C75.605 85.5903 75.6426 85.6587 75.6733 85.7271C75.7622 85.915 75.8613 86.0962 75.9639 86.2773C75.9946 86.3252 76.0151 86.3799 76.0459 86.4312C76.0596 86.4551 76.0801 86.4722 76.0938 86.4927C77.3379 88.4478 79.5186 89.75 82 89.75C85.8589 89.75 89 86.6089 89 82.75C89 78.8911 85.8589 75.75 82 75.75C80.7285 75.75 79.5015 76.0918 78.4146 76.7446L61 67.0239V66.9761L78.4146 57.2554C78.4658 57.2861 78.5239 57.3101 78.5752 57.3408C78.7358 57.4297 78.8965 57.5117 79.064 57.5903C79.1768 57.6416 79.2896 57.6929 79.4058 57.7407C79.5596 57.8022 79.7168 57.8569 79.8774 57.9082C80.0005 57.9458 80.1235 57.9868 80.25 58.021C80.4243 58.0654 80.5986 58.0962 80.7729 58.127C80.8892 58.1475 80.9985 58.1748 81.1113 58.1919C81.4053 58.2295 81.7026 58.25 82 58.25C85.8589 58.25 89 55.1089 89 51.25C89 47.3911 85.8589 44.25 82 44.25ZM82 46C84.895 46 87.25 48.355 87.25 51.25C87.25 54.145 84.895 56.5 82 56.5C81.7539 56.5 81.5112 56.4761 81.272 56.4453C81.1934 56.4316 81.1147 56.4146 81.0361 56.4009C80.8721 56.3701 80.708 56.3325 80.5474 56.2847C80.4653 56.2607 80.3867 56.2368 80.3081 56.2129C80.1099 56.1445 79.9116 56.0659 79.7202 55.9702C79.6963 55.96 79.6689 55.9497 79.645 55.9395C79.416 55.8232 79.1973 55.6865 78.9819 55.5396C78.5103 55.2046 78.0864 54.7979 77.7378 54.3159C77.4575 53.9263 76.9106 53.8374 76.5176 54.1211C76.1245 54.4014 76.0356 54.9482 76.3193 55.3413C76.5073 55.6045 76.7192 55.8438 76.9414 56.0762L59.6738 65.7148C59.373 65.8789 59.1987 66.207 59.2261 66.5488C59.2397 66.6992 59.25 66.8496 59.25 67C59.25 67.1504 59.2397 67.3008 59.2261 67.4512C59.1987 67.793 59.373 68.1177 59.6738 68.2852L78.0249 78.5288C78.3223 78.6929 78.6846 78.6758 78.9614 78.4775C79.8535 77.8384 80.9062 77.5 82 77.5C84.895 77.5 87.25 79.855 87.25 82.75C87.25 85.645 84.895 88 82 88C80.0723 88 78.3872 86.9507 77.4746 85.3955C77.3926 85.2622 77.3208 85.1221 77.2559 84.9819C77.2285 84.9307 77.2012 84.8794 77.1772 84.8281C77.0952 84.6333 77.0269 84.4385 76.9688 84.2402C76.9517 84.1855 76.9414 84.1309 76.9277 84.0762C76.8833 83.9155 76.8491 83.748 76.8218 83.584C76.8115 83.5259 76.8047 83.4644 76.7944 83.4062C76.7705 83.1875 76.75 82.9722 76.75 82.75C76.75 82.5688 76.7603 82.3911 76.7773 82.2168V82.2134C76.8286 81.6938 76.9585 81.1914 77.1602 80.7095C77.3516 80.2651 77.1396 79.749 76.6953 79.561C76.251 79.373 75.7383 79.5815 75.5503 80.0293C75.4478 80.272 75.3589 80.5249 75.2871 80.7812L58.0537 71.1631C57.9204 71.0879 57.7734 71.0503 57.6265 71.0503C57.4453 71.0503 57.2642 71.1084 57.1069 71.2246C56.1978 71.8945 55.1211 72.25 54 72.25C51.105 72.25 48.75 69.895 48.75 67C48.75 64.105 51.105 61.75 54 61.75C55.1211 61.75 56.1978 62.1055 57.1069 62.7754C57.3872 62.9805 57.7529 63.0044 58.0537 62.8335L76.333 52.6343C76.6372 52.4634 76.8115 52.1318 76.7773 51.7832C76.7603 51.6089 76.75 51.4312 76.75 51.25C76.75 48.355 79.105 46 82 46ZM54 53.875C53.5146 53.875 53.125 54.2681 53.125 54.75V56.5C53.125 56.9819 53.5146 57.375 54 57.375C54.4854 57.375 54.875 56.9819 54.875 56.5V54.75C54.875 54.2681 54.4854 53.875 54 53.875ZM47.7656 55.5225C47.6528 55.5361 47.54 55.5737 47.4375 55.6353C47.0171 55.8745 46.877 56.4111 47.1162 56.8281L47.9912 58.3457C48.1553 58.626 48.4492 58.7832 48.75 58.7832C48.9004 58.7832 49.0508 58.7456 49.1875 58.6636C49.6079 58.4243 49.748 57.8877 49.5054 57.4707L48.6338 55.9531C48.4492 55.6421 48.104 55.4814 47.7656 55.5225ZM43.5 60.0068C43.1616 59.9658 42.813 60.123 42.6318 60.4375C42.3926 60.8545 42.5361 61.3911 42.9531 61.6304L44.4707 62.5054C44.6074 62.5874 44.7578 62.625 44.9048 62.625C45.209 62.625 45.5029 62.4678 45.6636 62.1875C45.9062 61.7705 45.7627 61.2339 45.3457 60.9946L43.8281 60.1196C43.7256 60.0581 43.6128 60.0205 43.5 60.0068ZM41.75 66.125C41.2646 66.125 40.875 66.5181 40.875 67C40.875 67.4819 41.2646 67.875 41.75 67.875H43.5C43.9854 67.875 44.375 67.4819 44.375 67C44.375 66.5181 43.9854 66.125 43.5 66.125H41.75ZM44.7988 71.3818C44.686 71.3955 44.5732 71.4331 44.4707 71.4946L42.9531 72.3696C42.5361 72.6089 42.3926 73.1455 42.6318 73.5625C42.7959 73.8428 43.0898 74 43.3906 74C43.541 74 43.6914 73.9624 43.8281 73.8804L45.3457 73.0054C45.7627 72.7661 45.9062 72.2295 45.667 71.8125C45.4824 71.498 45.1338 71.3408 44.7988 71.3818ZM48.8594 75.2271C48.5176 75.1826 48.1724 75.3433 47.9912 75.6543L47.1162 77.1719C46.877 77.5889 47.0205 78.1255 47.4375 78.3647C47.5742 78.4468 47.7246 78.4844 47.875 78.4844C48.1758 78.4844 48.4697 78.3271 48.6338 78.0469L49.5054 76.5293C49.748 76.1123 49.6079 75.5757 49.1875 75.3364C49.0815 75.2749 48.9688 75.2407 48.8594 75.2271ZM54 76.625C53.5146 76.625 53.125 77.0181 53.125 77.5V79.25C53.125 79.7319 53.5146 80.125 54 80.125C54.4854 80.125 54.875 79.7319 54.875 79.25V77.5C54.875 77.0181 54.4854 76.625 54 76.625Z" fill="white"/>
</svg>
