<svg width="70" height="70" viewBox="0 0 70 70" fill="none" xmlns="http://www.w3.org/2000/svg">
<circle cx="35" cy="35" r="35" fill="#004789"/>
<path d="M45.25 19.6562C42.5626 19.6562 40.375 21.8438 40.375 24.5312C40.375 24.5598 40.375 24.5884 40.375 24.6169L28.3065 31.3534C27.5377 30.8773 26.6593 30.625 25.75 30.625C23.0626 30.625 20.875 32.8126 20.875 35.5C20.875 38.1874 23.0626 40.375 25.75 40.375C26.6593 40.375 27.5377 40.1227 28.3065 39.6466L40.375 46.3831C40.375 46.4116 40.375 46.4402 40.375 46.4688C40.375 46.6758 40.3917 46.8782 40.4155 47.0781C40.4226 47.1329 40.4345 47.1876 40.4417 47.2424C40.4678 47.3971 40.5012 47.5494 40.5392 47.6994C40.5511 47.7494 40.563 47.7994 40.5773 47.8494C40.6321 48.0374 40.6987 48.2207 40.7749 48.3969C40.7963 48.4468 40.8225 48.4944 40.8439 48.5421C40.9058 48.673 40.9749 48.7991 41.0463 48.9253C41.0677 48.9586 41.082 48.9967 41.1034 49.0324C41.1129 49.0491 41.1272 49.061 41.1367 49.0753C42.0032 50.4368 43.5219 51.3438 45.25 51.3438C47.9374 51.3438 50.125 49.1562 50.125 46.4688C50.125 43.7813 47.9374 41.5938 45.25 41.5938C44.3645 41.5938 43.5099 41.8318 42.753 42.2864L30.625 35.5167V35.4833L42.753 28.7136C42.7887 28.735 42.8292 28.7516 42.8649 28.7731C42.9767 28.835 43.0886 28.8921 43.2053 28.9468C43.2838 28.9825 43.3624 29.0182 43.4433 29.0516C43.5504 29.0944 43.6599 29.1325 43.7718 29.1682C43.8575 29.1944 43.9432 29.223 44.0312 29.2468C44.1526 29.2777 44.274 29.2991 44.3954 29.3206C44.4764 29.3348 44.5526 29.3539 44.6311 29.3658C44.8358 29.392 45.0429 29.4062 45.25 29.4062C47.9374 29.4062 50.125 27.2187 50.125 24.5312C50.125 21.8438 47.9374 19.6562 45.25 19.6562ZM45.25 20.875C47.2662 20.875 48.9062 22.5151 48.9062 24.5312C48.9062 26.5474 47.2662 28.1875 45.25 28.1875C45.0786 28.1875 44.9096 28.1708 44.743 28.1494C44.6882 28.1399 44.6335 28.128 44.5787 28.1185C44.4645 28.097 44.3502 28.0709 44.2383 28.0375C44.1812 28.0209 44.1265 28.0042 44.0717 27.9875C43.9337 27.9399 43.7956 27.8852 43.6623 27.8185C43.6456 27.8114 43.6266 27.8043 43.6099 27.7971C43.4504 27.7162 43.2981 27.621 43.1481 27.5186C42.8196 27.2853 42.5245 27.0021 42.2817 26.6664C42.0865 26.3951 41.7056 26.3332 41.4319 26.5308C41.1581 26.726 41.0963 27.1068 41.2938 27.3806C41.4247 27.5638 41.5723 27.7305 41.7271 27.8923L29.7014 34.605C29.4919 34.7192 29.3705 34.9478 29.3896 35.1858C29.3991 35.2905 29.4062 35.3953 29.4062 35.5C29.4062 35.6047 29.3991 35.7095 29.3896 35.8142C29.3705 36.0522 29.4919 36.2784 29.7014 36.395L42.4816 43.529C42.6887 43.6432 42.941 43.6313 43.1339 43.4933C43.7551 43.0482 44.4883 42.8125 45.25 42.8125C47.2662 42.8125 48.9062 44.4526 48.9062 46.4688C48.9062 48.4849 47.2662 50.125 45.25 50.125C43.9075 50.125 42.7339 49.3942 42.0984 48.3112C42.0413 48.2183 41.9913 48.1207 41.946 48.0231C41.927 47.9874 41.908 47.9517 41.8913 47.916C41.8342 47.7803 41.7866 47.6447 41.7461 47.5066C41.7342 47.4685 41.7271 47.4304 41.7175 47.3923C41.6866 47.2805 41.6628 47.1638 41.6437 47.0496C41.6366 47.0091 41.6318 46.9662 41.6247 46.9258C41.608 46.7734 41.5938 46.6235 41.5938 46.4688C41.5938 46.3426 41.6009 46.2188 41.6128 46.0974V46.095C41.6485 45.7332 41.739 45.3833 41.8794 45.0477C42.0127 44.7382 41.8651 44.3788 41.5557 44.2479C41.2462 44.1169 40.8892 44.2621 40.7582 44.574C40.6868 44.743 40.6249 44.9191 40.575 45.0977L28.5731 38.3993C28.4803 38.3469 28.3779 38.3207 28.2756 38.3207C28.1494 38.3207 28.0233 38.3612 27.9138 38.4421C27.2806 38.9087 26.5308 39.1562 25.75 39.1562C23.7338 39.1562 22.0938 37.5162 22.0938 35.5C22.0938 33.4838 23.7338 31.8438 25.75 31.8438C26.5308 31.8438 27.2806 32.0913 27.9138 32.5579C28.1089 32.7007 28.3636 32.7173 28.5731 32.5983L41.3033 25.4953C41.5152 25.3763 41.6366 25.1454 41.6128 24.9026C41.6009 24.7812 41.5938 24.6574 41.5938 24.5312C41.5938 22.5151 43.2338 20.875 45.25 20.875ZM25.75 26.3594C25.412 26.3594 25.1406 26.6331 25.1406 26.9688V28.1875C25.1406 28.5231 25.412 28.7969 25.75 28.7969C26.088 28.7969 26.3594 28.5231 26.3594 28.1875V26.9688C26.3594 26.6331 26.088 26.3594 25.75 26.3594ZM21.4082 27.5067C21.3297 27.5162 21.2511 27.5424 21.1797 27.5853C20.8869 27.7519 20.7893 28.1256 20.9559 28.416L21.5653 29.4729C21.6796 29.6681 21.8843 29.7776 22.0938 29.7776C22.1985 29.7776 22.3032 29.7514 22.3984 29.6943C22.6912 29.5276 22.7888 29.1539 22.6198 28.8635L22.0128 27.8066C21.8843 27.59 21.6439 27.4781 21.4082 27.5067ZM18.4375 30.6298C18.2018 30.6012 17.959 30.7107 17.8329 30.9297C17.6663 31.2201 17.7662 31.5938 18.0566 31.7604L19.1135 32.3698C19.2087 32.4269 19.3135 32.4531 19.4158 32.4531C19.6277 32.4531 19.8324 32.3436 19.9443 32.1484C20.1133 31.858 20.0133 31.4843 19.7229 31.3177L18.666 30.7083C18.5946 30.6655 18.5161 30.6393 18.4375 30.6298ZM17.2188 34.8906C16.8807 34.8906 16.6094 35.1644 16.6094 35.5C16.6094 35.8356 16.8807 36.1094 17.2188 36.1094H18.4375C18.7755 36.1094 19.0469 35.8356 19.0469 35.5C19.0469 35.1644 18.7755 34.8906 18.4375 34.8906H17.2188ZM19.342 38.5516C19.2635 38.5612 19.1849 38.5873 19.1135 38.6302L18.0566 39.2396C17.7662 39.4062 17.6663 39.7799 17.8329 40.0703C17.9471 40.2655 18.1519 40.375 18.3613 40.375C18.4661 40.375 18.5708 40.3488 18.666 40.2917L19.7229 39.6823C20.0133 39.5157 20.1133 39.142 19.9467 38.8516C19.8181 38.6326 19.5753 38.5231 19.342 38.5516ZM22.1699 41.2296C21.9319 41.1986 21.6915 41.3105 21.5653 41.5271L20.9559 42.584C20.7893 42.8744 20.8893 43.2481 21.1797 43.4147C21.2749 43.4719 21.3796 43.498 21.4844 43.498C21.6938 43.498 21.8986 43.3885 22.0128 43.1934L22.6198 42.1365C22.7888 41.8461 22.6912 41.4724 22.3984 41.3057C22.3246 41.2629 22.2461 41.2391 22.1699 41.2296ZM25.75 42.2031C25.412 42.2031 25.1406 42.4769 25.1406 42.8125V44.0312C25.1406 44.3669 25.412 44.6406 25.75 44.6406C26.088 44.6406 26.3594 44.3669 26.3594 44.0312V42.8125C26.3594 42.4769 26.088 42.2031 25.75 42.2031Z" fill="white"/>
</svg>
