<svg width="12" height="12" viewBox="0 0 12 12" fill="none" xmlns="http://www.w3.org/2000/svg">
<path fill-rule="evenodd" clip-rule="evenodd" d="M5.38759 2.55291C5.73917 2.94259 5.6277 3.38406 5.31684 3.80294C5.24314 3.90225 5.15818 4.00011 5.05558 4.10793C5.00633 4.15969 4.96793 4.19861 4.8876 4.27901C4.70518 4.46159 4.55182 4.61501 4.42754 4.73928C4.36727 4.79953 4.77876 5.62173 5.57736 6.42103C6.37552 7.2199 7.19776 7.63163 7.25831 7.57105L7.71806 7.1111C7.97124 6.8577 8.10531 6.73544 8.28955 6.61458C8.67257 6.36332 9.09034 6.29504 9.44269 6.61008C10.5931 7.43291 11.2441 7.93784 11.5631 8.2692C12.1852 8.91551 12.1036 9.91036 11.5666 10.4779C11.3804 10.6747 11.1443 10.9109 10.8654 11.1798C9.17847 12.8674 5.61827 11.8404 2.88976 9.10947C0.160638 6.37794 -0.865981 2.81776 0.81741 1.13364C1.11963 0.826701 1.21927 0.727118 1.5136 0.43713C2.0616 -0.102775 3.10246 -0.187313 3.7352 0.437664C4.06802 0.766404 4.59862 1.44904 5.38759 2.55291ZM8.56621 7.95945L8.10637 8.41949C7.32475 9.20147 5.99362 8.53491 4.72911 7.26929C3.46374 6.00281 2.79786 4.67231 3.57975 3.89056C3.70387 3.76647 3.85707 3.61319 4.03936 3.43075C4.11291 3.35713 4.14655 3.32303 4.18693 3.2806C4.24195 3.22278 4.28716 3.172 4.32335 3.12707C3.62413 2.15316 3.14882 1.54461 2.89258 1.29151C2.76024 1.1608 2.46393 1.18487 2.35514 1.29205C2.06501 1.5779 1.96965 1.6732 1.66865 1.97888C0.58606 3.06195 1.41482 5.93597 3.73801 8.26121C6.06047 10.5857 8.93435 11.4148 10.0252 10.3236C10.2997 10.0588 10.5234 9.83502 10.6956 9.65304C10.8201 9.52153 10.8423 9.25019 10.6992 9.10148C10.4608 8.8538 9.8771 8.39877 8.86931 7.67512C8.79585 7.73424 8.70555 7.81999 8.56621 7.95945Z" fill="white"/>
</svg>
