<svg width="91" height="64" viewBox="0 0 91 64" fill="none" xmlns="http://www.w3.org/2000/svg">
<path d="M49.3085 6.49218C49.3085 4.12497 47.3876 2.20596 45.018 2.20596C42.6485 2.20596 40.7275 4.12497 40.7275 6.49218V32.2054C40.7275 34.5726 42.6485 36.4916 45.018 36.4916C47.3876 36.4916 49.3085 34.5726 49.3085 32.2054V6.49218Z" fill="#004789"/>
<path d="M65.0102 4.28695C65.0102 6.65455 63.0887 8.57389 60.7183 8.57389C60.2258 8.57389 59.7523 8.49095 59.3118 8.33829C57.6323 7.75651 56.4268 6.16236 56.4268 4.28695C56.4268 2.41987 57.6218 0.831564 59.2893 0.243447C59.7362 0.0857822 60.2175 0 60.7183 0C63.0887 0 65.0102 1.91933 65.0102 4.28695Z" fill="#20A7EB"/>
<path fill-rule="evenodd" clip-rule="evenodd" d="M32.143 0.00906478L55.8402 0.00906372C54.8359 1.15071 54.227 2.6478 54.227 4.28696C54.227 5.93361 54.8418 7.43688 55.854 8.58048H32.143C29.7734 8.58048 27.8525 6.66172 27.8525 4.29477C27.8525 1.92784 29.7734 0.00906488 32.143 0.00906478Z" fill="#004789"/>
<path d="M36.1 15.3793H36.0999C34.5815 15.3793 33.3506 16.609 33.3506 18.1259V33.5044C33.3506 35.0213 34.5815 36.251 36.1 36.251C37.6184 36.251 38.8493 35.0213 38.8493 33.5044V18.1259C38.8493 16.609 37.6184 15.3793 36.1 15.3793Z" fill="#75378B"/>
<path d="M28.9574 23.0689H28.9574C27.4389 23.0689 26.208 24.2986 26.208 25.8155V33.5044C26.208 35.0214 27.4389 36.2511 28.9574 36.2511C30.4758 36.2511 31.7067 35.0214 31.7067 33.5044V25.8155C31.7067 24.2986 30.4758 23.0689 28.9574 23.0689Z" fill="#20A7EB"/>
<path d="M8.16022 57.6342C7.6899 57.6342 7.31363 57.5087 7.03142 57.2582C6.74921 57.0076 6.60813 56.6629 6.60813 56.2244V43.3734H2.06937C1.61471 43.3734 1.25412 43.2716 0.987595 43.0684C0.736748 42.8491 0.611328 42.5513 0.611328 42.1753C0.611328 41.784 0.736748 41.4862 0.987595 41.2825C1.23844 41.0633 1.59903 40.9538 2.06937 40.9538H14.2746C14.7449 40.9538 15.1056 41.0633 15.3564 41.2825C15.6072 41.4862 15.7327 41.784 15.7327 42.1753C15.7327 42.5513 15.5994 42.8491 15.3329 43.0684C15.082 43.2716 14.7293 43.3734 14.2746 43.3734H9.73587V56.2244C9.73587 56.6473 9.58692 56.992 9.28906 57.2582C9.00685 57.5087 8.63058 57.6342 8.16022 57.6342ZM20.3166 57.6342C18.9683 57.6342 17.7925 57.3913 16.7891 56.9058C15.7857 56.4204 15.0096 55.7389 14.4609 54.8618C13.9279 53.9691 13.6614 52.9276 13.6614 51.7371C13.6614 49.8109 14.2179 48.3149 15.331 47.2502C16.4599 46.1851 18.0433 45.6524 20.0814 45.6524C21.3357 45.6524 22.441 45.8484 23.3973 46.2396C24.3694 46.6313 25.1219 47.1796 25.6549 47.8844C26.2037 48.5734 26.478 49.3644 26.478 50.2571C26.478 51.0091 26.235 51.5884 25.749 51.9956C25.2787 52.4029 24.6045 52.6065 23.7266 52.6065H16.648C16.648 53.4836 16.9537 54.1491 17.5651 54.6033C18.1922 55.0418 19.1094 55.2611 20.3166 55.2611C21.5865 55.2611 22.6683 54.9793 23.5619 54.4156C24.0636 54.1022 24.4556 53.9454 24.7378 53.9454C25.0043 53.9454 25.263 54.0709 25.5138 54.3214C25.7804 54.5876 25.9136 54.8774 25.9136 55.1909C25.9136 55.5665 25.7569 55.8644 25.4433 56.0836C24.7848 56.5847 24.0166 56.9684 23.1386 57.2345C22.2607 57.5011 21.32 57.6342 20.3166 57.6342ZM22.7859 50.4451C23.0524 50.4451 23.2406 50.3982 23.3503 50.304C23.46 50.1945 23.5149 50.0222 23.5149 49.7873C23.5149 49.2393 23.2014 48.8084 22.5742 48.4953C21.9628 48.1818 21.1319 48.0254 20.0814 48.0254C19.031 48.0254 18.2001 48.2447 17.5887 48.6833C16.9929 49.1218 16.695 49.7091 16.695 50.4451H22.7859ZM30.4098 57.6342C29.9237 57.6342 29.5475 57.5087 29.281 57.2582C29.0144 57.0076 28.8811 56.6629 28.8811 56.2244V40.9774C28.8811 40.5389 29.0144 40.1942 29.281 39.9436C29.5475 39.6931 29.9237 39.5676 30.4098 39.5676C30.8801 39.5676 31.2563 39.6931 31.5386 39.9436C31.8208 40.1942 31.9619 40.5389 31.9619 40.9774V56.2244C31.9619 56.6629 31.8208 57.0076 31.5386 57.2582C31.2563 57.5087 30.8801 57.6342 30.4098 57.6342ZM41.0089 57.6342C39.6602 57.6342 38.4845 57.3913 37.4813 56.9058C36.4778 56.4204 35.7017 55.7389 35.153 54.8618C34.6199 53.9691 34.3534 52.9276 34.3534 51.7371C34.3534 49.8109 34.91 48.3149 36.0231 47.2502C37.1519 46.1851 38.7353 45.6524 40.7733 45.6524C42.0277 45.6524 43.1332 45.8484 44.0894 46.2396C45.0613 46.6313 45.814 47.1796 46.3469 47.8844C46.8958 48.5734 47.1703 49.3644 47.1703 50.2571C47.1703 51.0091 46.9271 51.5884 46.4412 51.9956C45.9709 52.4029 45.2968 52.6065 44.4188 52.6065H37.3401C37.3401 53.4836 37.6459 54.1491 38.2574 54.6033C38.8842 55.0418 39.8015 55.2611 41.0089 55.2611C42.2785 55.2611 43.3603 54.9793 44.2539 54.4156C44.7559 54.1022 45.1475 53.9454 45.43 53.9454C45.6964 53.9454 45.9549 54.0709 46.206 54.3214C46.4725 54.5876 46.6057 54.8774 46.6057 55.1909C46.6057 55.5665 46.4488 55.8644 46.1354 56.0836C45.477 56.5847 44.7086 56.9684 43.8306 57.2345C42.9526 57.5011 42.012 57.6342 41.0089 57.6342ZM43.4779 50.4451C43.7443 50.4451 43.9325 50.3982 44.0424 50.304C44.152 50.1945 44.207 50.0222 44.207 49.7873C44.207 49.2393 43.8936 48.8084 43.2664 48.4953C42.6549 48.1818 41.8239 48.0254 40.7733 48.0254C39.7232 48.0254 38.8922 48.2447 38.2807 48.6833C37.6848 49.1218 37.3871 49.7091 37.3871 50.4451H43.4779ZM55.4993 57.6342C53.3987 57.6342 51.768 57.1094 50.6079 56.06C49.4478 54.9949 48.8676 53.5149 48.8676 51.6196C48.8676 49.7247 49.4478 48.2604 50.6079 47.2265C51.768 46.1771 53.3987 45.6524 55.4993 45.6524C56.6124 45.6524 57.616 45.8404 58.5096 46.2164C59.4189 46.5764 60.1323 47.0934 60.6496 47.7669C60.8378 48.0018 60.932 48.2524 60.932 48.5185C60.932 48.9258 60.7202 49.2862 60.2969 49.5993C60.1087 49.7404 59.8735 49.8109 59.5914 49.8109C59.3719 49.8109 59.1444 49.7636 58.9093 49.6698C58.6741 49.5604 58.4703 49.4113 58.2981 49.2236C57.9844 48.8633 57.5767 48.5891 57.0751 48.4011C56.5891 48.1974 56.0639 48.0956 55.4993 48.0956C54.3862 48.0956 53.5163 48.4091 52.8891 49.0356C52.2776 49.6462 51.9718 50.5076 51.9718 51.6196C51.9718 52.7633 52.2776 53.648 52.8891 54.2745C53.5163 54.8854 54.3862 55.1909 55.4993 55.1909C56.738 55.1909 57.7962 54.7756 58.6741 53.9454C59.1131 53.5069 59.5445 53.2876 59.9678 53.2876C60.2499 53.2876 60.5087 53.3818 60.7438 53.5698C61.1199 53.8673 61.308 54.2276 61.308 54.6505C61.308 54.9167 61.1985 55.1753 60.979 55.4258C60.2579 56.1931 59.4502 56.7571 58.5566 57.1171C57.6786 57.4618 56.6598 57.6342 55.4993 57.6342ZM69.6469 57.6342C68.2987 57.6342 67.1226 57.3913 66.1194 56.9058C65.1158 56.4204 64.3398 55.7389 63.7913 54.8618C63.258 53.9691 62.9915 52.9276 62.9915 51.7371C62.9915 49.8109 63.5481 48.3149 64.6612 47.2502C65.79 46.1851 67.3737 45.6524 69.4118 45.6524C70.6661 45.6524 71.7712 45.8484 72.7274 46.2396C73.6997 46.6313 74.4521 47.1796 74.9853 47.8844C75.5339 48.5734 75.8083 49.3644 75.8083 50.2571C75.8083 51.0091 75.5652 51.5884 75.0793 51.9956C74.609 52.4029 73.9348 52.6065 73.0569 52.6065H65.9782C65.9782 53.4836 66.2839 54.1491 66.8954 54.6033C67.5226 55.0418 68.4395 55.2611 69.6469 55.2611C70.9169 55.2611 71.9987 54.9793 72.8923 54.4156C73.3939 54.1022 73.786 53.9454 74.0681 53.9454C74.3345 53.9454 74.5933 54.0709 74.8441 54.3214C75.1106 54.5876 75.2438 54.8774 75.2438 55.1909C75.2438 55.5665 75.0873 55.8644 74.7735 56.0836C74.115 56.5847 73.347 56.9684 72.469 57.2345C71.591 57.5011 70.6501 57.6342 69.6469 57.6342ZM72.1163 50.4451C72.3827 50.4451 72.5709 50.3982 72.6805 50.304C72.7904 50.1945 72.845 50.0222 72.845 49.7873C72.845 49.2393 72.5316 48.8084 71.9044 48.4953C71.2929 48.1818 70.4623 48.0254 69.4118 48.0254C68.3613 48.0254 67.5303 48.2447 66.9191 48.6833C66.3232 49.1218 66.0251 49.7091 66.0251 50.4451H72.1163ZM83.5732 63.2724C82.4288 63.2724 81.3863 63.0924 80.4457 62.732C79.5204 62.3876 78.8073 61.9022 78.3054 61.2756C78.1015 61.0094 77.9996 60.7353 77.9996 60.4534C77.9996 60.0774 78.1802 59.7327 78.5405 59.4196C78.7757 59.2316 79.0345 59.1378 79.3166 59.1378C79.7399 59.1378 80.1476 59.3491 80.5396 59.772C81.2137 60.4924 82.2016 60.8527 83.5026 60.8527C84.6157 60.8527 85.4547 60.5549 86.0189 59.96C86.5991 59.3804 86.8892 58.5269 86.8892 57.3993V56.4124C86.5129 56.7727 86.0269 57.0702 85.4311 57.3051C84.8352 57.5244 84.271 57.6342 83.7377 57.6342C81.7783 57.6342 80.2495 57.1171 79.1521 56.0836C78.0546 55.0342 77.506 53.5774 77.506 51.7138V46.968C77.506 46.5924 77.6549 46.2789 77.9527 46.0284C78.2508 45.7778 78.6192 45.6524 79.0581 45.6524C79.4815 45.6524 79.8418 45.7854 80.1399 46.052C80.4377 46.3025 80.5866 46.608 80.5866 46.968V51.7138C80.5866 52.8414 80.861 53.7185 81.4096 54.3451C81.9741 54.9716 82.7502 55.2847 83.7377 55.2847C84.6943 55.2847 85.4391 54.9716 85.972 54.3451C86.5052 53.7185 86.7717 52.8414 86.7717 51.7138V47.2265C86.7717 46.7254 86.9049 46.3414 87.1713 46.0753C87.4534 45.7934 87.8378 45.6524 88.3238 45.6524C88.8097 45.6524 89.1861 45.7934 89.4525 46.0753C89.719 46.3414 89.8522 46.7254 89.8522 47.2265V56.9996C89.8522 58.9731 89.2956 60.508 88.1825 61.6044C87.0851 62.7164 85.5486 63.2724 83.5732 63.2724Z" fill="#004789"/>
</svg>
