<svg width="100" height="71" viewBox="0 0 100 71" fill="none" xmlns="http://www.w3.org/2000/svg">
<path d="M54.1855 7.20229C54.1855 4.57616 52.0746 2.44727 49.4707 2.44727C46.8668 2.44727 44.7559 4.57616 44.7559 7.20229V35.7279C44.7559 38.354 46.8668 40.4829 49.4707 40.4829C52.0746 40.4829 54.1855 38.354 54.1855 35.7279V7.20229Z" fill="white"/>
<path d="M71.4402 4.75583C71.4402 7.38239 69.3286 9.51166 66.7242 9.51166C66.1826 9.51166 65.6622 9.41964 65.1782 9.25029C63.3326 8.60488 62.0078 6.83637 62.0078 4.75583C62.0078 2.68454 63.321 0.922516 65.1534 0.270074C65.6446 0.0951646 66.1734 0 66.7242 0C69.3286 0 71.4402 2.12926 71.4402 4.75583Z" fill="#20A7EB"/>
<path fill-rule="evenodd" clip-rule="evenodd" d="M35.3223 0.0102551L61.3631 0.0102539C60.2595 1.27677 59.5903 2.9376 59.5903 4.75604C59.5903 6.5828 60.2659 8.25049 61.3783 9.51917H35.3223C32.7183 9.51917 30.6074 7.39054 30.6074 4.76471C30.6074 2.1389 32.7183 0.0102552 35.3223 0.0102551Z" fill="white"/>
<path d="M39.6707 17.0615H39.6707C38.0021 17.0615 36.6494 18.4257 36.6494 20.1085V37.1691C36.6494 38.8519 38.0021 40.2161 39.6707 40.2161C41.3393 40.2161 42.692 38.8519 42.692 37.1691V20.1085C42.692 18.4257 41.3393 17.0615 39.6707 17.0615Z" fill="#75378B"/>
<path d="M31.8211 25.5923H31.8211C30.1525 25.5923 28.7998 26.9565 28.7998 28.6393V37.1692C28.7998 38.852 30.1525 40.2162 31.8211 40.2162C33.4897 40.2162 34.8424 38.852 34.8424 37.1692V28.6393C34.8424 26.9565 33.4897 25.5923 31.8211 25.5923Z" fill="#20A7EB"/>
<path d="M8.96736 63.9381C8.45052 63.9381 8.03704 63.7989 7.72692 63.521C7.4168 63.243 7.26176 62.8606 7.26176 62.3741V48.1176H2.27412C1.7745 48.1176 1.37824 48.0046 1.08536 47.7791C0.809699 47.5359 0.671875 47.2055 0.671875 46.7884C0.671875 46.3543 0.809699 46.0239 1.08536 45.798C1.36101 45.5547 1.75727 45.4333 2.27412 45.4333H15.6865C16.2033 45.4333 16.5996 45.5547 16.8752 45.798C17.1509 46.0239 17.2887 46.3543 17.2887 46.7884C17.2887 47.2055 17.1423 47.5359 16.8494 47.7791C16.5738 48.0046 16.1861 48.1176 15.6865 48.1176H10.6988V62.3741C10.6988 62.8432 10.5352 63.2257 10.2078 63.521C9.89772 63.7989 9.48424 63.9381 8.96736 63.9381ZM22.326 63.9381C20.8444 63.9381 19.5522 63.6686 18.4496 63.1301C17.347 62.5915 16.4942 61.8355 15.8912 60.8625C15.3054 59.8721 15.0126 58.7168 15.0126 57.396C15.0126 55.2591 15.6242 53.5995 16.8474 52.4183C18.0878 51.2367 19.8279 50.6458 22.0676 50.6458C23.4459 50.6458 24.6605 50.8632 25.7114 51.2973C26.7796 51.7317 27.6066 52.3401 28.1923 53.1219C28.7953 53.8863 29.0968 54.7638 29.0968 55.7541C29.0968 56.5884 28.8298 57.231 28.2957 57.6828C27.7788 58.1346 27.038 58.3605 26.0732 58.3605H18.2946C18.2946 59.3336 18.6305 60.0718 19.3024 60.5757C19.9916 61.0622 20.9994 61.3054 22.326 61.3054C23.7215 61.3054 24.9103 60.9928 25.8923 60.3675C26.4436 60.0198 26.8744 59.8459 27.1844 59.8459C27.4774 59.8459 27.7616 59.9851 28.0373 60.263C28.3302 60.5583 28.4766 60.8798 28.4766 61.2276C28.4766 61.6443 28.3043 61.9747 27.9597 62.2179C27.2362 62.7738 26.392 63.1994 25.4272 63.4947C24.4624 63.7904 23.4286 63.9381 22.326 63.9381ZM25.0395 55.9627C25.3324 55.9627 25.5392 55.9106 25.6597 55.8062C25.7803 55.6847 25.8406 55.4935 25.8406 55.2329C25.8406 54.625 25.4961 54.1469 24.8069 53.7996C24.135 53.4519 23.2219 53.2784 22.0676 53.2784C20.9133 53.2784 20.0002 53.5217 19.3283 54.0082C18.6736 54.4947 18.3462 55.1462 18.3462 55.9627H25.0395ZM33.4174 63.9381C32.8833 63.9381 32.4698 63.7989 32.177 63.521C31.8841 63.243 31.7376 62.8606 31.7376 62.3741V45.4595C31.7376 44.973 31.8841 44.5906 32.177 44.3126C32.4698 44.0347 32.8833 43.8955 33.4174 43.8955C33.9342 43.8955 34.3477 44.0347 34.6578 44.3126C34.968 44.5906 35.123 44.973 35.123 45.4595V62.3741C35.123 62.8606 34.968 63.243 34.6578 63.521C34.3477 63.7989 33.9342 63.9381 33.4174 63.9381ZM45.0648 63.9381C43.5828 63.9381 42.2908 63.6686 41.1884 63.1301C40.0856 62.5915 39.2327 61.8355 38.6298 60.8625C38.044 59.8721 37.7511 58.7168 37.7511 57.396C37.7511 55.2591 38.3627 53.5995 39.5859 52.4183C40.8264 51.2367 42.5664 50.6458 44.806 50.6458C46.1844 50.6458 47.3992 50.8632 48.45 51.2973C49.518 51.7317 50.3452 52.3401 50.9308 53.1219C51.534 53.8863 51.8356 54.7638 51.8356 55.7541C51.8356 56.5884 51.5684 57.231 51.0344 57.6828C50.5176 58.1346 49.7768 58.3605 48.812 58.3605H41.0332C41.0332 59.3336 41.3692 60.0718 42.0412 60.5757C42.73 61.0622 43.738 61.3054 45.0648 61.3054C46.46 61.3054 47.6488 60.9928 48.6308 60.3675C49.1824 60.0198 49.6128 59.8459 49.9232 59.8459C50.216 59.8459 50.5 59.9851 50.776 60.263C51.0688 60.5583 51.2152 60.8798 51.2152 61.2276C51.2152 61.6443 51.0428 61.9747 50.6984 62.2179C49.9748 62.7738 49.1304 63.1994 48.1656 63.4947C47.2008 63.7904 46.1672 63.9381 45.0648 63.9381ZM47.778 55.9627C48.0708 55.9627 48.2776 55.9106 48.3984 55.8062C48.5188 55.6847 48.5792 55.4935 48.5792 55.2329C48.5792 54.625 48.2348 54.1469 47.5456 53.7996C46.8736 53.4519 45.9604 53.2784 44.806 53.2784C43.652 53.2784 42.7388 53.5217 42.0668 54.0082C41.412 54.4947 41.0848 55.1462 41.0848 55.9627H47.778ZM60.9884 63.9381C58.68 63.9381 56.888 63.356 55.6132 62.1917C54.3384 61.0101 53.7008 59.3683 53.7008 57.2657C53.7008 55.1635 54.3384 53.539 55.6132 52.3921C56.888 51.2279 58.68 50.6458 60.9884 50.6458C62.2116 50.6458 63.3144 50.8543 64.2964 51.2714C65.2956 51.6708 66.0796 52.2445 66.648 52.9916C66.8548 53.2522 66.9584 53.5301 66.9584 53.8254C66.9584 54.2772 66.7256 54.677 66.2604 55.0244C66.0536 55.1809 65.7952 55.2591 65.4852 55.2591C65.244 55.2591 64.994 55.2067 64.7356 55.1026C64.4772 54.9812 64.2532 54.8158 64.064 54.6076C63.7192 54.2079 63.2712 53.9037 62.72 53.6951C62.186 53.4692 61.6088 53.3563 60.9884 53.3563C59.7652 53.3563 58.8092 53.704 58.12 54.3991C57.448 55.0764 57.112 56.0321 57.112 57.2657C57.112 58.5344 57.448 59.5159 58.12 60.211C58.8092 60.8887 59.7652 61.2276 60.9884 61.2276C62.3496 61.2276 63.5124 60.7669 64.4772 59.8459C64.9596 59.3594 65.4336 59.1161 65.8988 59.1161C66.2088 59.1161 66.4932 59.2206 66.7516 59.4292C67.1648 59.7592 67.3716 60.1589 67.3716 60.6281C67.3716 60.9234 67.2512 61.2102 67.01 61.4882C66.2176 62.3394 65.33 62.9651 64.348 63.3644C63.3832 63.7469 62.2636 63.9381 60.9884 63.9381ZM76.5352 63.9381C75.0536 63.9381 73.7612 63.6686 72.6588 63.1301C71.556 62.5915 70.7032 61.8355 70.1004 60.8625C69.5144 59.8721 69.2216 58.7168 69.2216 57.396C69.2216 55.2591 69.8332 53.5995 71.0564 52.4183C72.2968 51.2367 74.0372 50.6458 76.2768 50.6458C77.6552 50.6458 78.8696 50.8632 79.9204 51.2973C80.9888 51.7317 81.8156 52.3401 82.4016 53.1219C83.0044 53.8863 83.306 54.7638 83.306 55.7541C83.306 56.5884 83.0388 57.231 82.5048 57.6828C81.988 58.1346 81.2472 58.3605 80.2824 58.3605H72.5036C72.5036 59.3336 72.8396 60.0718 73.5116 60.5757C74.2008 61.0622 75.2084 61.3054 76.5352 61.3054C77.9308 61.3054 79.1196 60.9928 80.1016 60.3675C80.6528 60.0198 81.0836 59.8459 81.3936 59.8459C81.6864 59.8459 81.9708 59.9851 82.2464 60.263C82.5392 60.5583 82.6856 60.8798 82.6856 61.2276C82.6856 61.6443 82.5136 61.9747 82.1688 62.2179C81.4452 62.7738 80.6012 63.1994 79.6364 63.4947C78.6716 63.7904 77.6376 63.9381 76.5352 63.9381ZM79.2488 55.9627C79.5416 55.9627 79.7484 55.9106 79.8688 55.8062C79.9896 55.6847 80.0496 55.4935 80.0496 55.2329C80.0496 54.625 79.7052 54.1469 79.016 53.7996C78.344 53.4519 77.4312 53.2784 76.2768 53.2784C75.1224 53.2784 74.2092 53.5217 73.5376 54.0082C72.8828 54.4947 72.5552 55.1462 72.5552 55.9627H79.2488ZM91.8388 70.1929C90.5812 70.1929 89.4356 69.9933 88.402 69.5935C87.3852 69.2114 86.6016 68.6729 86.05 67.9778C85.826 67.6825 85.714 67.3784 85.714 67.0657C85.714 66.6486 85.9124 66.2662 86.3084 65.9188C86.5668 65.7103 86.8512 65.6062 87.1612 65.6062C87.6264 65.6062 88.0744 65.8406 88.5052 66.3097C89.246 67.1089 90.3316 67.5087 91.7612 67.5087C92.9844 67.5087 93.9064 67.1783 94.5264 66.5183C95.164 65.8753 95.4828 64.9285 95.4828 63.6775V62.5826C95.0692 62.9824 94.5352 63.3124 93.8804 63.573C93.2256 63.8163 92.6056 63.9381 92.0196 63.9381C89.8664 63.9381 88.1864 63.3644 86.9804 62.2179C85.7744 61.0537 85.1716 59.4376 85.1716 57.3702V52.1053C85.1716 51.6886 85.3352 51.3408 85.6624 51.0629C85.99 50.7849 86.3948 50.6458 86.8772 50.6458C87.3424 50.6458 87.7384 50.7934 88.066 51.0891C88.3932 51.367 88.5568 51.7059 88.5568 52.1053V57.3702C88.5568 58.6212 88.8584 59.5942 89.4612 60.2892C90.0816 60.9843 90.9344 61.3317 92.0196 61.3317C93.0708 61.3317 93.8892 60.9843 94.4748 60.2892C95.0608 59.5942 95.3536 58.6212 95.3536 57.3702V52.3921C95.3536 51.8362 95.5 51.4102 95.7928 51.1149C96.1028 50.8023 96.5252 50.6458 97.0592 50.6458C97.5932 50.6458 98.0068 50.8023 98.2996 51.1149C98.5924 51.4102 98.7388 51.8362 98.7388 52.3921V63.2341C98.7388 65.4234 98.1272 67.1262 96.904 68.3425C95.698 69.5761 94.0096 70.1929 91.8388 70.1929Z" fill="white"/>
</svg>
