<svg width="41" height="40" viewBox="0 0 41 40" fill="none" xmlns="http://www.w3.org/2000/svg">
<circle cx="20.5717" cy="19.7143" r="19.7143" fill="white"/>
<g clip-path="url(#clip0_247_7845)">
<path d="M18.4824 16.928V22.4994C18.4824 23.0566 19.1092 23.4048 19.5967 23.1262L23.7753 20.3405C24.1931 20.0619 24.1931 19.4352 23.7753 19.1566L19.5967 16.3709C19.1092 16.0226 18.4824 16.3709 18.4824 16.928Z" stroke="#75378B" stroke-width="2" stroke-miterlimit="10" stroke-linecap="round" stroke-linejoin="round"/>
<path d="M28.9982 26.3299C22.2429 26.8174 18.9 26.8174 12.1446 26.3299C11.3786 26.2602 10.6125 25.5638 10.5429 24.7977C9.98571 20.7585 9.98571 18.7388 10.5429 14.6995C10.6821 13.9335 11.3786 13.1674 12.1446 13.1674C18.9 12.6799 22.2429 12.6799 28.9982 13.1674C29.7643 13.237 30.5304 13.9335 30.6 14.6995C31.1571 18.7388 31.1571 20.7585 30.6 24.7977C30.5304 25.5638 29.7643 26.2602 28.9982 26.3299Z" stroke="#75378B" stroke-width="2" stroke-miterlimit="10" stroke-linecap="round" stroke-linejoin="round"/>
</g>
<defs>
<clipPath id="clip0_247_7845">
<rect width="22.2857" height="22.2857" fill="white" transform="translate(9.42871 8.57129)"/>
</clipPath>
</defs>
</svg>
